<svg xmlns="http://www.w3.org/2000/svg" width="956.478271484375" height="558.0164794921875" viewBox="-489.0067443847656 -191.11376953125 956.478271484375 558.0164794921875"><title>Neo4j Graph Visualization</title><desc>Created using Neo4j (http://www.neo4j.com/)</desc><g class="layer relationships"><g class="relationship" transform="translate(-445.00673424177 105.33883918127654) rotate(310.3067971910279)"><path class="outline" fill="#FF756E" stroke="none" d="M 40 1.5 L 75.32246185626381 1.5 L 75.32246185626381 -1.5 L 40 -1.5 Z M 110.32246185626381 1.5 L 145.64492371252763 1.5 L 145.64492371252763 4.5 L 154.64492371252763 0 L 145.64492371252763 -4.5 L 145.64492371252763 -1.5 L 110.32246185626381 -1.5 Z"/><text text-anchor="middle" pointer-events="none" font-size="8px" fill="#000000" x="92.82246185626381" y="3" font-family="sans-serif">mapping</text></g><g class="relationship" transform="translate(423.4715504331597 154.76766416656048) rotate(507.7662592648162)"><path class="outline" fill="#FF756E" stroke="none" d="M 40 1.5 L 71.84724568463264 1.5 L 71.84724568463264 -1.5 L 40 -1.5 Z M 106.84724568463264 1.5 L 138.69449136926528 1.5 L 138.69449136926528 4.5 L 147.69449136926528 0 L 138.69449136926528 -4.5 L 138.69449136926528 -1.5 L 106.84724568463264 -1.5 Z"/><text text-anchor="middle" pointer-events="none" font-size="8px" fill="#000000" x="89.34724568463264" y="3" transform="rotate(180 89.34724568463264 0)" font-family="sans-serif">mapping</text></g><g class="relationship" transform="translate(-110.16418345626823 -147.11376494332086) rotate(462.1450790885842)"><path class="outline" fill="#FF756E" stroke="none" d="M 40 1.5 L 133.86800509148503 1.5 L 133.86800509148503 -1.5 L 40 -1.5 Z M 168.86800509148503 1.5 L 262.73601018297006 1.5 L 262.73601018297006 4.5 L 271.73601018297006 0 L 262.73601018297006 -4.5 L 262.73601018297006 -1.5 L 168.86800509148503 -1.5 Z"/><text text-anchor="middle" pointer-events="none" font-size="8px" fill="#000000" x="151.36800509148503" y="3" transform="rotate(180 151.36800509148503 0)" font-family="sans-serif">mapping</text></g><g class="relationship" transform="translate(-445.00673424177 105.33883918127654) rotate(370.99340889541133)"><path class="outline" fill="#FF756E" stroke="none" d="M 40 1.5 L 115.14528492452342 1.5 L 115.14528492452342 -1.5 L 40 -1.5 Z M 150.14528492452342 1.5 L 225.29056984904685 1.5 L 225.29056984904685 4.5 L 234.29056984904685 0 L 225.29056984904685 -4.5 L 225.29056984904685 -1.5 L 150.14528492452342 -1.5 Z"/><text text-anchor="middle" pointer-events="none" font-size="8px" fill="#000000" x="132.64528492452342" y="3" font-family="sans-serif">mapping</text></g><g class="relationship" transform="translate(208.29095882685 50.512306438523964) rotate(343.84216728462764)"><path class="outline" fill="#FF756E" stroke="none" d="M 40 1.5 L 64.89952324601003 1.5 L 64.89952324601003 -1.5 L 40 -1.5 Z M 99.89952324601003 1.5 L 124.79904649202007 1.5 L 124.79904649202007 4.5 L 133.79904649202007 0 L 124.79904649202007 -4.5 L 124.79904649202007 -1.5 L 99.89952324601003 -1.5 Z"/><text text-anchor="middle" pointer-events="none" font-size="8px" fill="#000000" x="82.39952324601003" y="3" font-family="sans-serif">mapping</text></g><g class="relationship" transform="translate(423.4715504331597 154.76766416656048) rotate(252.45710878993327)"><path class="outline" fill="#FF756E" stroke="none" d="M 40 1.5 L 58.032643413440255 1.5 L 58.032643413440255 -1.5 L 40 -1.5 Z M 93.03264341344025 1.5 L 111.06528682688051 1.5 L 111.06528682688051 4.5 L 120.06528682688051 0 L 111.06528682688051 -4.5 L 111.06528682688051 -1.5 L 93.03264341344025 -1.5 Z"/><text text-anchor="middle" pointer-events="none" font-size="8px" fill="#000000" x="75.53264341344025" y="3" transform="rotate(180 75.53264341344025 0)" font-family="sans-serif">mapping</text></g><g class="relationship" transform="translate(-319.09477677116087 -43.0957433558641) rotate(333.53315909185017)"><path class="outline" fill="#FF756E" stroke="none" d="M 40 1.5 L 94.69590999461128 1.5 L 94.69590999461128 -1.5 L 40 -1.5 Z M 129.69590999461127 1.5 L 184.39181998922257 1.5 L 184.39181998922257 4.5 L 193.39181998922257 0 L 184.39181998922257 -4.5 L 184.39181998922257 -1.5 L 129.69590999461127 -1.5 Z"/><text text-anchor="middle" pointer-events="none" font-size="8px" fill="#000000" x="112.19590999461128" y="3" font-family="sans-serif">mapping</text></g><g class="relationship" transform="translate(264.70468131039155 254.87911885243057) rotate(254.5682852390226)"><path class="outline" fill="#FF756E" stroke="none" d="M 40 1.5 L 84.0050731105249 1.5 L 84.0050731105249 -1.5 L 40 -1.5 Z M 119.0050731105249 1.5 L 163.0101462210498 1.5 L 163.0101462210498 4.5 L 172.0101462210498 0 L 163.0101462210498 -4.5 L 163.0101462210498 -1.5 L 119.0050731105249 -1.5 Z"/><text text-anchor="middle" pointer-events="none" font-size="8px" fill="#000000" x="101.5050731105249" y="3" transform="rotate(180 101.5050731105249 0)" font-family="sans-serif">mapping</text></g><g class="relationship" transform="translate(-175.74963581966244 157.6449732137429) rotate(372.11568247441176)"><path class="outline" fill="#FF756E" stroke="none" d="M 40 1.5 L 93.23290807576684 1.5 L 93.23290807576684 -1.5 L 40 -1.5 Z M 128.23290807576683 1.5 L 181.4658161515337 1.5 L 181.4658161515337 4.5 L 190.4658161515337 0 L 181.4658161515337 -4.5 L 181.4658161515337 -1.5 L 128.23290807576683 -1.5 Z"/><text text-anchor="middle" pointer-events="none" font-size="8px" fill="#000000" x="110.73290807576684" y="3" font-family="sans-serif">mapping</text></g><g class="relationship" transform="translate(-403.95566888177905 322.90266424145045) rotate(345.5481929069731)"><path class="outline" fill="#FF756E" stroke="none" d="M 40 1.5 L 212.17912630662687 1.5 L 212.17912630662687 -1.5 L 40 -1.5 Z M 247.17912630662687 1.5 L 419.35825261325374 1.5 L 419.35825261325374 4.5 L 428.35825261325374 0 L 419.35825261325374 -4.5 L 419.35825261325374 -1.5 L 247.17912630662687 -1.5 Z"/><text text-anchor="middle" pointer-events="none" font-size="8px" fill="#000000" x="229.67912630662687" y="3" font-family="sans-serif">mapping</text></g><g class="relationship" transform="translate(-175.74963581966244 157.6449732137429) rotate(321.5019102229527)"><path class="outline" fill="#FF756E" stroke="none" d="M 40 1.5 L 137.91105760095323 1.5 L 137.91105760095323 -1.5 L 40 -1.5 Z M 172.91105760095323 1.5 L 270.82211520190646 1.5 L 270.82211520190646 4.5 L 279.82211520190646 0 L 270.82211520190646 -4.5 L 270.82211520190646 -1.5 L 172.91105760095323 -1.5 Z"/><text text-anchor="middle" pointer-events="none" font-size="8px" fill="#000000" x="155.41105760095323" y="3" font-family="sans-serif">mapping</text></g><g class="relationship" transform="translate(-445.00673424177 105.33883918127654) rotate(344.22460409616224)"><path class="outline" fill="#FF756E" stroke="none" d="M 40 1.5 L 247.94717272841706 1.5 L 247.94717272841706 -1.5 L 40 -1.5 Z M 282.94717272841706 1.5 L 490.8943454568341 1.5 L 490.8943454568341 4.5 L 499.8943454568341 0 L 490.8943454568341 -4.5 L 490.8943454568341 -1.5 L 282.94717272841706 -1.5 Z"/><text text-anchor="middle" pointer-events="none" font-size="8px" fill="#000000" x="265.44717272841706" y="3" font-family="sans-serif">mapping</text></g><g class="relationship" transform="translate(-110.16418345626823 -147.11376494332086) rotate(389.7731206593529)"><path class="outline" fill="#FF756E" stroke="none" d="M 40 1.5 L 84.4037439659149 1.5 L 84.4037439659149 -1.5 L 40 -1.5 Z M 119.4037439659149 1.5 L 163.8074879318298 1.5 L 163.8074879318298 4.5 L 172.8074879318298 0 L 163.8074879318298 -4.5 L 163.8074879318298 -1.5 L 119.4037439659149 -1.5 Z"/><text text-anchor="middle" pointer-events="none" font-size="8px" fill="#000000" x="101.9037439659149" y="3" font-family="sans-serif">mapping</text></g><g class="relationship" transform="translate(-110.16418345626823 -147.11376494332086) rotate(482.00811961283273)"><path class="outline" fill="#FF756E" stroke="none" d="M 40 1.5 L 255.1411556464193 1.5 L 255.1411556464193 -1.5 L 40 -1.5 Z M 290.1411556464193 1.5 L 505.2823112928386 1.5 L 505.2823112928386 4.5 L 514.2823112928386 0 L 505.2823112928386 -4.5 L 505.2823112928386 -1.5 L 290.1411556464193 -1.5 Z"/><text text-anchor="middle" pointer-events="none" font-size="8px" fill="#000000" x="272.6411556464193" y="3" transform="rotate(180 272.6411556464193 0)" font-family="sans-serif">mapping</text></g><g class="relationship" transform="translate(-175.74963581966244 157.6449732137429) rotate(504.08944576913404)"><path class="outline" fill="#FF756E" stroke="none" d="M 40 1.5 L 118.87946795910071 1.5 L 118.87946795910071 -1.5 L 40 -1.5 Z M 153.8794679591007 1.5 L 232.75893591820142 1.5 L 232.75893591820142 4.5 L 241.75893591820142 0 L 232.75893591820142 -4.5 L 232.75893591820142 -1.5 L 153.8794679591007 -1.5 Z"/><text text-anchor="middle" pointer-events="none" font-size="8px" fill="#000000" x="136.3794679591007" y="3" transform="rotate(180 136.3794679591007 0)" font-family="sans-serif">mapping</text></g><g class="relationship" transform="translate(-445.00673424177 105.33883918127654) rotate(439.31476030616665)"><path class="outline" fill="#FF756E" stroke="none" d="M 40 1.5 L 88.70140913963586 1.5 L 88.70140913963586 -1.5 L 40 -1.5 Z M 123.70140913963586 1.5 L 172.4028182792717 1.5 L 172.4028182792717 4.5 L 181.4028182792717 0 L 172.4028182792717 -4.5 L 172.4028182792717 -1.5 L 123.70140913963586 -1.5 Z"/><text text-anchor="middle" pointer-events="none" font-size="8px" fill="#000000" x="106.20140913963586" y="3" font-family="sans-serif">mapping</text></g></g><g class="layer nodes"><g class="node" transform="translate(-319.09477677116087,-43.0957433558641)"><circle class="outline" cx="0" cy="0" r="40" fill="#FFD86E" stroke="#EDBA39" stroke-width="2px"/><text text-anchor="middle" pointer-events="none" y="5" font-size="10px" fill="#604A0E" font-family="sans-serif"> A一维设计</text></g><g class="node" transform="translate(264.70468131039155,254.87911885243057)"><circle class="outline" cx="0" cy="0" r="40" fill="#FFD86E" stroke="#EDBA39" stroke-width="2px"/><text text-anchor="middle" pointer-events="none" y="5" font-size="10px" fill="#604A0E" font-family="sans-serif"> B一维设计</text></g><g class="node" transform="translate(-175.74963581966244,157.6449732137429)"><circle class="outline" cx="0" cy="0" r="40" fill="#FFD86E" stroke="#EDBA39" stroke-width="2px"/><text text-anchor="middle" pointer-events="none" y="5" font-size="10px" fill="#604A0E" font-family="sans-serif"> A外换热设计</text></g><g class="node" transform="translate(375.22472596268096,2.146761353458409)"><circle class="outline" cx="0" cy="0" r="40" fill="#FFD86E" stroke="#EDBA39" stroke-width="2px"/><text text-anchor="middle" pointer-events="none" y="5" font-size="10px" fill="#604A0E" font-family="sans-serif"> B外换热设计</text></g><g class="node" transform="translate(-110.16418345626823,-147.11376494332086)"><circle class="outline" cx="0" cy="0" r="40" fill="#FFD86E" stroke="#EDBA39" stroke-width="2px"/><text text-anchor="middle" pointer-events="none" y="5" font-size="10px" fill="#604A0E" font-family="sans-serif"> A性能CFX设计</text></g><g class="node" transform="translate(208.29095882685,50.512306438523964)"><circle class="outline" cx="0" cy="0" r="40" fill="#FFD86E" stroke="#EDBA39" stroke-width="2px"/><text text-anchor="middle" pointer-events="none" y="5" font-size="10px" fill="#604A0E" font-family="sans-serif"> B性能CFX设计</text></g><g class="node" transform="translate(-445.00673424177,105.33883918127654)"><circle class="outline" cx="0" cy="0" r="40" fill="#FFD86E" stroke="#EDBA39" stroke-width="2px"/><text text-anchor="middle" pointer-events="none" y="5" font-size="10px" fill="#604A0E" font-family="sans-serif"> B总体外发</text></g><g class="node" transform="translate(423.4715504331597,154.76766416656048)"><circle class="outline" cx="0" cy="0" r="40" fill="#FFD86E" stroke="#EDBA39" stroke-width="2px"/><text text-anchor="middle" pointer-events="none" y="5" font-size="10px" fill="#604A0E" font-family="sans-serif"> C总体外发</text></g><g class="node" transform="translate(49.5827444725568,206.0165641141383)"><circle class="outline" cx="0" cy="0" r="40" fill="#FFD86E" stroke="#EDBA39" stroke-width="2px"/><text text-anchor="middle" pointer-events="none" y="5" font-size="10px" fill="#604A0E" font-family="sans-serif"> A涡轮传热外发</text></g><g class="node" transform="translate(74.55239786853977,-41.44062974079421)"><circle class="outline" cx="0" cy="0" r="40" fill="#FFD86E" stroke="#EDBA39" stroke-width="2px"/><text text-anchor="middle" pointer-events="none" y="5" font-size="10px" fill="#604A0E" font-family="sans-serif"> A涡轮强度分析</text></g><g class="node" transform="translate(-403.95566888177905,322.90266424145045)"><circle class="outline" cx="0" cy="0" r="40" fill="#FFD86E" stroke="#EDBA39" stroke-width="2px"/><text text-anchor="middle" pointer-events="none" y="5" font-size="10px" fill="#604A0E" font-family="sans-serif"> A非设计点设计</text></g></g></svg>